<svg width="20" height="20" viewBox="0 0 20 20" fill="none" xmlns="http://www.w3.org/2000/svg">
<path d="M17.0676 0.723057H2.37741C1.25061 0.723057 0.374203 1.6412 0.374203 2.72627V17.4165C0.374203 18.5433 1.25061 19.4197 2.37741 19.4197H8.09492V13.0762H5.4657V10.0714H8.09492V7.81777C8.09492 5.23028 9.63906 3.76961 11.9761 3.76961C13.1447 3.76961 14.3132 3.97828 14.3132 3.97828V6.52403H13.0195C11.7257 6.52403 11.3084 7.31696 11.3084 8.15164V10.0714H14.188L13.729 13.0762H11.3084V19.4197H17.0676C18.1527 19.4197 19.0708 18.5433 19.0708 17.4165V2.72627C19.0708 1.6412 18.1527 0.723057 17.0676 0.723057Z" fill="white"/>
</svg>
