<svg width="74" height="34" viewBox="0 0 74 34" fill="none" xmlns="http://www.w3.org/2000/svg">
<path d="M5.873 33.3945C4.57618 33.3945 3.50141 33.1281 2.64871 32.5951C1.796 32.0622 1.15647 31.3338 0.730118 30.4101C0.303765 29.4685 0.0905883 28.3849 0.0905883 27.1591V17.4862C0.0905883 16.225 0.294882 15.1235 0.703471 14.182C1.11206 13.2227 1.74271 12.4766 2.59541 11.9437C3.44812 11.4107 4.54065 11.1442 5.873 11.1442C7.18759 11.1442 8.26235 11.4107 9.09729 11.9437C9.95 12.4766 10.5806 13.2227 10.9892 14.182C11.3978 15.1235 11.6021 16.225 11.6021 17.4862V27.1591C11.6021 28.3849 11.3889 29.4685 10.9626 30.4101C10.5362 31.3338 9.89671 32.0622 9.044 32.5951C8.19129 33.1281 7.13429 33.3945 5.873 33.3945ZM5.873 29.7705C6.35265 29.7705 6.69906 29.6195 6.91224 29.3175C7.12541 29.0155 7.26753 28.6602 7.33859 28.2517C7.40965 27.8253 7.44518 27.4345 7.44518 27.0792V17.5662C7.44518 17.1754 7.40965 16.7668 7.33859 16.3404C7.28529 15.9141 7.15206 15.5499 6.93888 15.2479C6.72571 14.9281 6.37041 14.7682 5.873 14.7682C5.37559 14.7682 5.01141 14.9281 4.78047 15.2479C4.56729 15.5499 4.42518 15.9141 4.35412 16.3404C4.30082 16.7668 4.27418 17.1754 4.27418 17.5662V27.0792C4.27418 27.4345 4.30971 27.8253 4.38076 28.2517C4.45182 28.6602 4.60282 29.0155 4.83376 29.3175C5.06471 29.6195 5.41112 29.7705 5.873 29.7705ZM16.8508 33.0215V15.7009C16.6909 15.7897 16.4688 15.8874 16.1846 15.994C15.9181 16.0828 15.625 16.1894 15.3052 16.3138C14.9855 16.4204 14.6835 16.527 14.3992 16.6335C14.115 16.7224 13.8929 16.8023 13.733 16.8734V13.8356C13.9462 13.729 14.2305 13.5869 14.5858 13.4092C14.9588 13.2316 15.3496 13.0362 15.7582 12.823C16.1668 12.6098 16.5488 12.3789 16.904 12.1302C17.2771 11.8815 17.5613 11.6505 17.7568 11.4374H20.9544V33.0215H16.8508ZM24.2759 33.0215L29.1124 16.8334H30.891L26.0346 33.0215H24.2759Z" fill="white"/>
<path d="M42.5651 33.5811C40.6199 33.5811 39.0077 33.1814 37.7287 32.382C36.4496 31.5825 35.4903 30.49 34.8508 29.1044C34.2113 27.6921 33.8915 26.0666 33.8915 24.228V9.71863C33.8915 7.82669 34.1979 6.17457 34.8108 4.76228C35.4237 3.32334 36.3697 2.20416 37.6487 1.40475C38.9278 0.605336 40.5666 0.205629 42.5651 0.205629C44.537 0.205629 46.1491 0.605336 47.4016 1.40475C48.6806 2.20416 49.6266 3.32334 50.2395 4.76228C50.8524 6.17457 51.1588 7.82669 51.1588 9.71863V24.228C51.1588 26.0666 50.839 27.6921 50.1995 29.1044C49.56 30.49 48.6007 31.5825 47.3216 32.382C46.0426 33.1814 44.4571 33.5811 42.5651 33.5811ZM42.5651 28.1451C43.2846 28.1451 43.8042 27.9186 44.124 27.4656C44.4437 27.0126 44.6569 26.4796 44.7635 25.8667C44.8701 25.2272 44.9234 24.641 44.9234 24.108V9.83854C44.9234 9.25231 44.8701 8.63942 44.7635 7.99989C44.6836 7.36036 44.4837 6.8141 44.1639 6.3611C43.8442 5.88145 43.3112 5.64163 42.5651 5.64163C41.819 5.64163 41.2727 5.88145 40.9263 6.3611C40.6066 6.8141 40.3934 7.36036 40.2868 7.99989C40.2069 8.63942 40.1669 9.25231 40.1669 9.83854V24.108C40.1669 24.641 40.2202 25.2272 40.3268 25.8667C40.4334 26.4796 40.6599 27.0126 41.0063 27.4656C41.3527 27.9186 41.8723 28.1451 42.5651 28.1451ZM64.3478 33.0215V25.467H54.5151V20.6306L62.9489 0.645305H70.1436V20.7505H73.2613V25.467H70.1436V33.0215H64.3478ZM59.3915 20.7505H64.3478V7.00063L59.3915 20.7505Z" fill="#86DA44"/>
</svg>
