<svg width="20" height="20" viewBox="0 0 20 20" fill="none" xmlns="http://www.w3.org/2000/svg">
<path d="M6.48375 0.905273C3.38748 0.905273 0.870117 3.42264 0.870117 6.51891V14.2916C0.870117 17.3879 3.38748 19.9053 6.48375 19.9053H14.2565C17.3528 19.9053 19.8701 17.3879 19.8701 14.2916V6.51891C19.8701 3.42264 17.3528 0.905273 14.2565 0.905273H6.48375ZM15.5519 4.35982C16.0269 4.35982 16.4156 4.74846 16.4156 5.22346C16.4156 5.69846 16.0269 6.08709 15.5519 6.08709C15.0769 6.08709 14.6883 5.69846 14.6883 5.22346C14.6883 4.74846 15.0769 4.35982 15.5519 4.35982ZM10.3701 5.65527C12.9914 5.65527 15.1201 7.784 15.1201 10.4053C15.1201 13.0265 12.9914 15.1553 10.3701 15.1553C7.74885 15.1553 5.62012 13.0265 5.62012 10.4053C5.62012 7.784 7.74885 5.65527 10.3701 5.65527ZM10.3701 6.51891C8.22823 6.51891 6.48375 8.26339 6.48375 10.4053C6.48375 12.5472 8.22823 14.2916 10.3701 14.2916C12.512 14.2916 14.2565 12.5472 14.2565 10.4053C14.2565 8.26339 12.512 6.51891 10.3701 6.51891Z" fill="white"/>
</svg>
