<svg width="88" height="43" viewBox="0 0 88 43" fill="none" xmlns="http://www.w3.org/2000/svg">
<path d="M1.59824 22.2766V7.69661H7.59224V9.53261H4.26224V13.7806H6.98024V15.6346H4.26224V22.2766H1.59824ZM12.9938 22.4746C11.9618 22.4746 11.1398 22.2826 10.5278 21.8986C9.91579 21.5146 9.47779 20.9626 9.21379 20.2426C8.94979 19.5226 8.81779 18.6706 8.81779 17.6866V12.2326C8.81779 11.2486 8.94979 10.4086 9.21379 9.71261C9.47779 9.00461 9.91579 8.46461 10.5278 8.09261C11.1398 7.72061 11.9618 7.53461 12.9938 7.53461C14.0498 7.53461 14.8778 7.72061 15.4778 8.09261C16.0898 8.46461 16.5278 9.00461 16.7918 9.71261C17.0678 10.4086 17.2058 11.2486 17.2058 12.2326V17.7046C17.2058 18.6766 17.0678 19.5226 16.7918 20.2426C16.5278 20.9506 16.0898 21.5026 15.4778 21.8986C14.8778 22.2826 14.0498 22.4746 12.9938 22.4746ZM12.9938 20.5126C13.4378 20.5126 13.7618 20.4166 13.9658 20.2246C14.1818 20.0326 14.3258 19.7686 14.3978 19.4326C14.4698 19.0966 14.5058 18.7306 14.5058 18.3346V11.6206C14.5058 11.2126 14.4698 10.8466 14.3978 10.5226C14.3258 10.1986 14.1818 9.94661 13.9658 9.76661C13.7618 9.57461 13.4378 9.47861 12.9938 9.47861C12.5738 9.47861 12.2558 9.57461 12.0398 9.76661C11.8238 9.94661 11.6798 10.1986 11.6078 10.5226C11.5358 10.8466 11.4998 11.2126 11.4998 11.6206V18.3346C11.4998 18.7306 11.5298 19.0966 11.5898 19.4326C11.6618 19.7686 11.8058 20.0326 12.0218 20.2246C12.2378 20.4166 12.5618 20.5126 12.9938 20.5126ZM19.1764 22.2766V7.69661H22.6684C23.6524 7.69661 24.4804 7.81661 25.1524 8.05661C25.8364 8.28461 26.3524 8.68061 26.7004 9.24461C27.0604 9.80861 27.2404 10.5766 27.2404 11.5486C27.2404 12.1366 27.1864 12.6646 27.0784 13.1326C26.9704 13.6006 26.7844 14.0026 26.5204 14.3386C26.2684 14.6626 25.9144 14.9146 25.4584 15.0946L27.4924 22.2766H24.8284L23.0644 15.5986H21.8404V22.2766H19.1764ZM21.8404 13.9246H22.6684C23.1844 13.9246 23.5924 13.8526 23.8924 13.7086C24.2044 13.5526 24.4264 13.3126 24.5584 12.9886C24.6904 12.6526 24.7564 12.2266 24.7564 11.7106C24.7564 10.9786 24.6184 10.4326 24.3424 10.0726C24.0784 9.70061 23.5684 9.51461 22.8124 9.51461H21.8404V13.9246ZM29.2311 22.2766V7.69661H35.3511V9.56861H31.8951V13.7626H34.6131V15.6166H31.8951V20.4406H35.3871V22.2766H29.2311ZM40.6023 22.4746C39.7263 22.4746 38.9943 22.3066 38.4063 21.9706C37.8183 21.6226 37.3743 21.1186 37.0743 20.4586C36.7743 19.7986 36.6063 18.9886 36.5703 18.0286L38.8563 17.5786C38.8803 18.1426 38.9463 18.6406 39.0543 19.0726C39.1743 19.5046 39.3483 19.8406 39.5763 20.0806C39.8163 20.3086 40.1283 20.4226 40.5123 20.4226C40.9443 20.4226 41.2503 20.2966 41.4303 20.0446C41.6103 19.7806 41.7003 19.4506 41.7003 19.0546C41.7003 18.4186 41.5563 17.8966 41.2683 17.4886C40.9803 17.0806 40.5963 16.6726 40.1163 16.2646L38.2803 14.6446C37.7643 14.2006 37.3503 13.7086 37.0383 13.1686C36.7383 12.6166 36.5883 11.9386 36.5883 11.1346C36.5883 9.98261 36.9243 9.09461 37.5963 8.47061C38.2683 7.84661 39.1863 7.53461 40.3503 7.53461C41.0343 7.53461 41.6043 7.64261 42.0603 7.85861C42.5163 8.06261 42.8763 8.35061 43.1403 8.72261C43.4163 9.09461 43.6203 9.52061 43.7523 10.0006C43.8843 10.4686 43.9683 10.9666 44.0043 11.4946L41.7363 11.8906C41.7123 11.4346 41.6583 11.0266 41.5743 10.6666C41.5023 10.3066 41.3643 10.0246 41.1603 9.82061C40.9683 9.61661 40.6803 9.51461 40.2963 9.51461C39.9003 9.51461 39.5943 9.64661 39.3783 9.91061C39.1743 10.1626 39.0723 10.4806 39.0723 10.8646C39.0723 11.3566 39.1743 11.7646 39.3783 12.0886C39.5823 12.4006 39.8763 12.7246 40.2603 13.0606L42.0783 14.6626C42.6783 15.1666 43.1883 15.7606 43.6083 16.4446C44.0403 17.1166 44.2563 17.9326 44.2563 18.8926C44.2563 19.5886 44.1003 20.2066 43.7883 20.7466C43.4883 21.2866 43.0623 21.7126 42.5103 22.0246C41.9703 22.3246 41.3343 22.4746 40.6023 22.4746ZM47.2828 22.2766V9.65861H44.9608V7.69661H52.2328V9.65861H49.9468V22.2766H47.2828Z" fill="white"/>
<path d="M2.31524 35.2766V27.0266H1.54524V35.2766H2.31524ZM9.90267 35.2766V27.0266H9.15467L9.17667 33.7476L4.74367 27.0266H4.18267V35.2766H4.93067L4.90867 28.5556L9.34167 35.2766H9.90267ZM16.5898 27.0266L14.2468 34.1326L11.9038 27.0266H11.0568L13.9718 35.3866H14.5218L17.4368 27.0266H16.5898ZM22.9879 30.6346H19.3359V27.7196H23.3729V27.0266H18.5879V35.2766H23.3729V34.5836H19.3359V31.3276H22.9879V30.6346ZM25.6094 31.6686H27.5124C27.6334 31.6686 27.7544 31.6686 27.8754 31.6576L29.7234 35.2766H30.5924L28.6234 31.5366C29.7564 31.2396 30.1414 30.4476 30.1414 29.3476C30.1414 27.9286 29.5034 27.0266 27.4464 27.0266H24.8614V35.2766H25.6094V31.6686ZM25.6094 27.7196H27.6444C29.1074 27.7196 29.3274 28.4676 29.3274 29.3476C29.3274 30.2276 29.1074 30.9756 27.6444 30.9756H25.6094V27.7196ZM34.6084 34.6936C32.6174 34.6936 32.3204 33.1316 32.3204 31.1516C32.3204 29.1716 32.6174 27.6096 34.6084 27.6096C36.5994 27.6096 36.8964 29.1716 36.8964 31.1516C36.8964 33.1316 36.5994 34.6936 34.6084 34.6936ZM34.6084 35.3866C37.3034 35.3866 37.6884 33.3076 37.6884 31.1516C37.6884 28.9956 37.3034 26.9166 34.6084 26.9166C31.9134 26.9166 31.5284 28.9956 31.5284 31.1516C31.5284 33.3076 31.9134 35.3866 34.6084 35.3866ZM44.89 35.2766V27.0266H44.142L44.164 33.7476L39.731 27.0266H39.17V35.2766H39.918L39.896 28.5556L44.329 35.2766H44.89ZM53.4251 28.0056L53.3811 35.2766H54.1291V27.0266H53.1171L50.3341 33.0986L47.5511 27.0266H46.5391V35.2766H47.2871L47.2431 28.0056L50.0261 34.0116H50.6421L53.4251 28.0056ZM60.1774 30.6346H56.5254V27.7196H60.5624V27.0266H55.7774V35.2766H60.5624V34.5836H56.5254V31.3276H60.1774V30.6346ZM67.7708 35.2766V27.0266H67.0228L67.0448 33.7476L62.6118 27.0266H62.0508V35.2766H62.7988L62.7768 28.5556L67.2098 35.2766H67.7708ZM74.326 27.7196V27.0266H69.024V27.7196H71.301V35.2766H72.049V27.7196H74.326ZM74.9914 35.2766L75.7504 32.9666H78.9184L79.6774 35.2766H80.5244L77.6094 26.9166H77.0594L74.1444 35.2766H74.9914ZM77.3344 28.1706L78.6984 32.3176H75.9594L77.3344 28.1706ZM82.3711 27.0266H81.6231V35.2766H86.1881V34.5836H82.3711V27.0266Z" fill="white"/>
<line x1="1.50024" y1="41.1709" x2="60.5002" y2="41.1709" stroke="#86DA44" stroke-width="2"/>
</svg>
